<svg xmlns="http://www.w3.org/2000/svg" width="164" height="164" fill="none"><rect width="164" height="164" fill="#FFFDFC" rx="82"/><path fill="#021013" d="M50.21 122.685c-2.07 0-4.025-.192-5.865-.575a42.724 42.724 0 0 1-4.945-1.15 64.504 64.504 0 0 0-3.68-.92c-.997-.307-1.802-.46-2.415-.46s-1.227.153-1.84.46a8.334 8.334 0 0 0-1.61 1.035c-.613.46-1.112.69-1.495.69-.537 0-.997-.153-1.38-.46-.383-.23-.575-.537-.575-.92 0-.69.192-1.993.575-3.91.383-1.917.537-4.102.46-6.555l-.23-52.67c0-2.07-.383-3.833-1.15-5.29-.69-1.533-1.917-2.53-3.68-2.99a6.04 6.04 0 0 1-.92-.575c-.307-.307-.46-.728-.46-1.265 0-.46.115-.805.345-1.035.307-.23.613-.383.92-.46 1.457-.307 3.22-.805 5.29-1.495 2.07-.69 4.063-1.38 5.98-2.07 1.917-.767 3.373-1.303 4.37-1.61.613-.307 1.073-.46 1.38-.46.383 0 .652.115.805.345.153.23.23.498.23.805 0 .46-.077 1.572-.23 3.335a61.247 61.247 0 0 0-.23 5.52V74.27c0 1.15.077 2.032.23 2.645.153.537.422.805.805.805a29.928 29.928 0 0 1 7.705-4.14c2.76-.997 5.328-1.495 7.705-1.495 3.987 0 7.552 1.035 10.695 3.105 3.143 2.07 5.635 4.868 7.475 8.395 1.917 3.45 2.875 7.437 2.875 11.96 0 5.29-1.15 10.005-3.45 14.145-2.3 4.063-5.482 7.245-9.545 9.545s-8.778 3.45-14.145 3.45Zm2.185-4.485c2.377 0 4.37-.882 5.98-2.645 1.687-1.84 2.99-4.255 3.91-7.245.92-2.99 1.38-6.325 1.38-10.005 0-2.99-.46-6.057-1.38-9.2-.843-3.143-2.223-5.788-4.14-7.935-1.917-2.147-4.408-3.22-7.475-3.22-1.917 0-3.872.307-5.865.92-1.993.613-3.642 1.495-4.945 2.645v23.805c0 2.53.575 4.792 1.725 6.785 1.227 1.917 2.798 3.412 4.715 4.485 1.917 1.073 3.948 1.61 6.095 1.61ZM98.648 122.685c-2.453 0-4.83-.345-7.13-1.035a19.367 19.367 0 0 1-6.095-2.875c-.536-1.073-.958-2.76-1.265-5.06-.23-2.3-.345-4.562-.345-6.785 0-.92.652-1.38 1.955-1.38.537 0 .997.153 1.38.46.384.307.652.652.805 1.035 1.304 3.373 2.952 6.095 4.945 8.165 1.994 1.993 4.255 2.99 6.785 2.99 2.147 0 3.834-.652 5.06-1.955 1.227-1.38 1.84-2.952 1.84-4.715 0-2.07-.766-3.795-2.3-5.175-1.456-1.38-3.488-2.798-6.095-4.255-2.376-1.303-4.523-2.683-6.44-4.14-1.84-1.457-3.296-3.105-4.37-4.945-1.073-1.917-1.61-4.14-1.61-6.67 0-2.837.729-5.328 2.185-7.475 1.457-2.147 3.489-3.833 6.095-5.06 2.684-1.227 5.75-1.84 9.2-1.84 2.454 0 4.639.268 6.555.805 1.994.537 3.374 1.073 4.14 1.61.614.767 1.112 2.185 1.495 4.255.384 1.993.575 4.102.575 6.325 0 .69-.575 1.035-1.725 1.035-.536 0-1.073-.153-1.61-.46-.536-.307-.881-.613-1.035-.92-.996-2.837-2.261-4.983-3.795-6.44-1.533-1.457-3.296-2.185-5.29-2.185-1.763 0-3.373.575-4.83 1.725-1.38 1.073-2.07 2.607-2.07 4.6 0 1.61.652 3.067 1.955 4.37 1.38 1.303 3.335 2.645 5.865 4.025 4.83 2.607 8.319 5.098 10.465 7.475 2.147 2.3 3.22 5.405 3.22 9.315 0 4.677-1.61 8.395-4.83 11.155-3.22 2.683-7.781 4.025-13.685 4.025Z"/><path fill="#008F81" d="M134.259 123.95c-2.224 0-4.179-.843-5.865-2.53-1.61-1.61-2.415-3.527-2.415-5.75 0-2.377.805-4.37 2.415-5.98 1.686-1.687 3.641-2.53 5.865-2.53 2.376 0 4.37.843 5.98 2.53 1.686 1.61 2.53 3.603 2.53 5.98 0 2.223-.844 4.14-2.53 5.75-1.61 1.687-3.604 2.53-5.98 2.53Z"/></svg>